<svg width="36" height="36" viewBox="0 0 36 36" fill="none" xmlns="http://www.w3.org/2000/svg">
<path d="M18 0C8.0595 0 0 8.0595 0 18C0 27.9405 8.0595 36 18 36C27.9405 36 36 27.9405 36 18C36 8.0595 27.9405 0 18 0ZM28.0605 14.5605L16.7205 25.9005C16.4385 26.1825 16.0575 26.34 15.66 26.34C15.2625 26.34 14.88 26.1825 14.5995 25.9005L9.42 20.721C8.8335 20.1345 8.8335 19.1865 9.42 18.6C10.0065 18.0135 10.9545 18.0135 11.541 18.6L15.66 22.719L25.9395 12.4395C26.526 11.853 27.474 11.853 28.0605 12.4395C28.647 13.026 28.647 13.974 28.0605 14.5605Z" fill="#EEA900"/>
</svg>
