<svg width="20" height="20" viewBox="0 0 20 20" fill="none" xmlns="http://www.w3.org/2000/svg">
<path opacity="0.93" fill-rule="evenodd" clip-rule="evenodd" d="M9.7839 0C13.6995 0.0513248 16.6739 1.73313 18.7069 5.04542C20.0737 7.57737 20.357 10.2266 19.5567 12.9931C18.2671 16.6915 15.7102 18.9761 11.8861 19.8468C8.01755 20.445 4.78975 19.2915 2.20272 16.3864C0.629967 14.4446 -0.100568 12.227 0.0111056 9.73364C0.20492 9.61456 0.398739 9.61456 0.592553 9.73364C0.651199 12.2624 1.51592 14.4651 3.1867 16.3418C5.80733 18.9327 8.91584 19.7885 12.5122 18.9092C15.74 17.8897 17.8645 15.7688 18.8858 12.5466C19.7213 9.20074 19.0057 6.23895 16.7389 3.66128C14.8372 1.72669 12.5188 0.736952 9.7839 0.69207C9.649 0.623819 9.58938 0.512195 9.60499 0.357198C9.59524 0.197986 9.6549 0.0789184 9.7839 0Z" fill="#2C2922"/>
<path opacity="0.967" fill-rule="evenodd" clip-rule="evenodd" d="M9.82886 3.66146C10.0213 3.63003 10.1779 3.68959 10.2985 3.84006C10.3283 5.95347 10.3283 8.06692 10.2985 10.1803C10.2442 10.2495 10.1771 10.3015 10.0972 10.3366C8.50195 10.3664 6.90673 10.3664 5.31146 10.3366C5.08295 10.1863 5.03076 9.98538 5.15492 9.73382C5.19531 9.6802 5.24746 9.64296 5.31146 9.6222C6.74263 9.59988 8.17388 9.59242 9.60523 9.59988C9.59776 7.67989 9.60523 5.75996 9.62759 3.84006C9.69007 3.76996 9.75716 3.7104 9.82886 3.66146Z" fill="#2C2922"/>
</svg>
