<svg width="33" height="37" viewBox="0 0 33 37" fill="none" xmlns="http://www.w3.org/2000/svg">
<path opacity="0.948" fill-rule="evenodd" clip-rule="evenodd" d="M15.2183 0.535772C19.7793 0.231481 23.3844 1.86851 26.0336 5.44688C27.9278 8.29979 28.38 11.354 27.3903 14.6094C26.9261 16.0124 26.3735 17.3807 25.7322 18.7142C24.2996 21.6604 22.7043 24.5069 20.9463 27.2537C23.4338 27.4858 25.8958 27.8768 28.3324 28.4265C29.67 28.7474 30.901 29.2849 32.0254 30.0391C33.2725 31.1394 33.3228 32.2878 32.1761 33.4842C30.6012 34.5247 28.8677 35.2088 26.9757 35.5366C22.09 36.4382 17.166 36.707 12.2036 36.3429C9.60064 36.1977 7.03813 35.8067 4.5161 35.1701C3.26133 34.8528 2.10569 34.3397 1.04917 33.6308C-0.32413 32.4591 -0.349258 31.2619 0.973803 30.0391C1.80157 29.4605 2.70598 29.0207 3.68705 28.7197C4.43418 28.5014 5.18785 28.3059 5.94809 28.1333C7.97104 27.751 10.006 27.4578 12.0529 27.2537C9.91862 23.9458 8.04693 20.4884 6.43798 16.8817C5.67932 15.1816 5.21453 13.4101 5.04367 11.5674C5.28342 6.89525 7.54445 3.52345 11.8268 1.45202C12.9303 1.01902 14.0608 0.713605 15.2183 0.535772ZM16.1981 2.07507C20.515 2.18758 23.6177 4.11782 25.5061 7.86578C26.3952 9.85097 26.5208 11.879 25.8829 13.9497C25.4641 15.2527 24.9617 16.5233 24.3755 17.7613C22.036 22.3875 19.4107 26.8344 16.4996 31.1019C13.2247 26.3955 10.3733 21.4355 7.94534 16.222C7.27682 14.733 6.8623 13.1814 6.70177 11.5674C6.82349 8.30023 8.23038 5.71027 10.9224 3.79763C12.5267 2.76034 14.2854 2.18616 16.1981 2.07507ZM12.6558 28.8296C12.8476 28.8006 13.0109 28.8495 13.1457 28.9762C14.0062 30.3325 14.8855 31.6763 15.7836 33.0077C16.3147 33.5168 16.8172 33.4923 17.291 32.9344C18.189 31.603 19.0684 30.2592 19.9288 28.9029C22.5853 28.9753 25.2105 29.3295 27.8048 29.9658C28.9001 30.2391 29.9301 30.6544 30.8949 31.2119C31.1215 31.3706 31.2722 31.5783 31.3471 31.8349C31.1897 32.1701 30.9384 32.4267 30.5934 32.6046C29.0184 33.3663 27.3603 33.8794 25.6191 34.1439C20.0026 35.042 14.3752 35.1153 8.7367 34.3638C6.52292 34.1188 4.41263 33.5324 2.40579 32.6046C2.04867 32.4283 1.79745 32.1596 1.65211 31.7983C1.79782 31.4854 2.02393 31.2411 2.33043 31.0653C4.09977 30.2318 5.95886 29.6698 7.90765 29.3794C9.4955 29.1441 11.0782 28.9608 12.6558 28.8296Z" fill="#2C2922"/>
<path opacity="0.946" fill-rule="evenodd" clip-rule="evenodd" d="M15.8654 6.76707C18.2983 6.65623 20.0444 7.65803 21.1035 9.77237C21.9024 12.1016 21.3372 14.044 19.4077 15.5997C17.2959 16.8742 15.2358 16.8009 13.2275 15.3798C11.5387 13.8063 11.074 11.9371 11.8332 9.77237C12.6471 8.08794 13.9912 7.0862 15.8654 6.76707ZM15.9408 8.37967C13.8775 8.94848 12.9605 10.2679 13.1898 12.3379C13.8466 14.2698 15.2158 15.0884 17.2974 14.7934C18.851 14.2838 19.7052 13.2332 19.8599 11.6415C19.5415 9.4448 18.2352 8.35754 15.9408 8.37967Z" fill="#2C2922"/>
</svg>
