<svg width="24" height="25" viewBox="0 0 24 25" fill="none" xmlns="http://www.w3.org/2000/svg">
<path opacity="0.966" fill-rule="evenodd" clip-rule="evenodd" d="M9.09375 0.5C9.75 0.5 10.4062 0.5 11.0625 0.5C14.4932 0.913707 17.1104 2.58558 18.9141 5.51562C20.4212 8.31922 20.6087 11.2099 19.4766 14.1875C19.0121 15.2579 18.3949 16.2267 17.625 17.0938C19.7025 19.1635 21.7884 21.226 23.8828 23.2812C23.9113 23.3547 23.9504 23.4172 24 23.4688C24 23.6406 24 23.8125 24 23.9844C23.9062 24.2344 23.7344 24.4062 23.4844 24.5C23.3125 24.5 23.1406 24.5 22.9688 24.5C22.8718 24.459 22.7781 24.4043 22.6875 24.3359C20.6165 22.2884 18.5384 20.2493 16.4531 18.2188C13.2555 20.5338 9.80231 20.9947 6.09375 19.6016C2.57408 17.9602 0.542827 15.218 0 11.375C0 10.75 0 10.125 0 9.5C0.49048 5.8302 2.3811 3.15053 5.67188 1.46094C6.77123 0.971432 7.91184 0.651119 9.09375 0.5ZM9.75 2.04688C12.8347 2.03847 15.2956 3.25722 17.1328 5.70312C18.7527 8.1988 19.034 10.8394 17.9766 13.625C16.7828 16.2657 14.775 17.9297 11.9531 18.6172C9.02044 19.1772 6.44231 18.4741 4.21875 16.5078C1.65791 13.8808 0.978225 10.8261 2.17969 7.34375C3.36102 4.64705 5.38444 2.95175 8.25 2.25781C8.75302 2.15803 9.25298 2.08772 9.75 2.04688Z" fill="#2C2922"/>
</svg>
