<svg xmlns="http://www.w3.org/2000/svg">
	<symbol id="phone-call" viewBox="0 0 20 21" fill="none">
		<path opacity="0.932" fill-rule="evenodd" clip-rule="evenodd" d="M3.32031 0.5C3.51562 0.5 3.71094 0.5 3.90625 0.5C4.18301 0.600663 4.4109 0.769934 4.58984 1.00781C5.53703 2.42039 6.47453 3.83966 7.40234 5.26562C7.54484 5.7134 7.47973 6.13008 7.20703 6.51562C6.60094 6.98801 6.00199 7.4698 5.41016 7.96094C5.36598 8.04785 5.33344 8.13898 5.3125 8.23438C5.75801 9.24293 6.35047 10.1544 7.08984 10.9688C8.1425 12.1387 9.2818 13.2129 10.5078 14.1914C11.0584 14.5839 11.6443 14.916 12.2656 15.1875C12.4549 15.1612 12.6046 15.0701 12.7148 14.9141C13.1231 14.3625 13.5463 13.8221 13.9844 13.293C14.3696 13.0203 14.7863 12.9552 15.2344 13.0977C16.7465 14.0631 18.2374 15.0592 19.707 16.0859C19.826 16.2462 19.9237 16.4154 20 16.5938C20 16.8021 20 17.0104 20 17.2188C19.6372 17.8919 19.2531 18.5559 18.8477 19.2109C18.5455 19.6823 18.1353 20.0273 17.6172 20.2461C17.2534 20.3567 16.8888 20.4413 16.5234 20.5C16.0677 20.5 15.612 20.5 15.1562 20.5C13.6446 20.276 12.2253 19.7746 10.8984 18.9961C9.55832 18.164 8.29531 17.2265 7.10938 16.1836C5.94371 15.0961 4.83043 13.9567 3.76953 12.7656C2.84277 11.6694 2.02245 10.4975 1.30859 9.25C0.634902 8.02152 0.198704 6.71945 0 5.34375C0 4.88801 0 4.4323 0 3.97656C0.0647203 3.47893 0.201439 2.99715 0.410156 2.53125C0.625 2.16016 0.917969 1.86719 1.28906 1.65234C1.95248 1.23623 2.62956 0.852115 3.32031 0.5ZM3.4375 1.20312C3.63974 1.172 3.81552 1.22408 3.96484 1.35938C4.90586 2.75586 5.83035 4.16211 6.73828 5.57812C6.78461 5.76828 6.74555 5.93758 6.62109 6.08594C6.11734 6.49727 5.60301 6.89437 5.07812 7.27734C4.52348 7.83027 4.46488 8.43574 4.90234 9.09375C5.25746 9.73922 5.66109 10.3512 6.11328 10.9297C7.095 12.1068 8.16922 13.194 9.33594 14.1914C10.093 14.8175 10.9133 15.3514 11.7969 15.793C12.2284 15.9543 12.632 15.9022 13.0078 15.6367C13.4719 15.0816 13.9211 14.5152 14.3555 13.9375C14.5507 13.738 14.7786 13.6925 15.0391 13.8008C16.3995 14.7219 17.7667 15.6334 19.1406 16.5352C19.2823 16.6848 19.3279 16.8606 19.2773 17.0625C18.8762 17.7629 18.4595 18.453 18.0273 19.1328C17.5824 19.5375 17.0551 19.7523 16.4453 19.7773C15.2563 19.8677 14.1104 19.6854 13.0078 19.2305C11.6448 18.6465 10.3817 17.9043 9.21875 17.0039C6.60602 14.9513 4.35992 12.562 2.48047 9.83594C1.63815 8.55477 1.06523 7.16152 0.761719 5.65625C0.664211 4.89617 0.690254 4.14097 0.839844 3.39062C0.957016 2.9093 1.22395 2.5382 1.64062 2.27734C2.24852 1.92809 2.84748 1.57001 3.4375 1.20312Z" fill="currentColor"/>
		<path opacity="0.933" fill-rule="evenodd" clip-rule="evenodd" d="M11.1725 3.15625C13.6621 3.18641 15.5566 4.25412 16.8561 6.35938C17.4434 7.39336 17.7038 8.50016 17.6374 9.67969C17.5219 9.82723 17.3722 9.87277 17.1881 9.81641C17.1035 9.78387 17.0449 9.72527 17.0124 9.64062C16.9237 7.16332 15.7714 5.38598 13.5553 4.30859C12.776 4.00567 11.9687 3.8364 11.1334 3.80078C10.9172 3.57307 10.9302 3.35823 11.1725 3.15625Z" fill="currentColor"/>
		<path opacity="0.932" fill-rule="evenodd" clip-rule="evenodd" d="M11.2118 5.14844C12.9394 5.16871 14.248 5.9109 15.1376 7.375C15.5372 8.10035 15.7065 8.86855 15.6454 9.67969C15.4371 9.88801 15.2287 9.88801 15.0204 9.67969C14.8186 7.29035 13.523 5.99477 11.1337 5.79297C10.9166 5.54828 10.9426 5.33344 11.2118 5.14844Z" fill="currentColor"/>
		<path opacity="0.927" fill-rule="evenodd" clip-rule="evenodd" d="M11.2507 7.14062C12.5554 7.20219 13.3562 7.86625 13.653 9.13281C13.6791 9.30207 13.6791 9.47137 13.653 9.64062C13.5399 9.82246 13.3771 9.88105 13.1647 9.81641C13.1191 9.77082 13.0736 9.72527 13.028 9.67969C12.9429 8.52691 12.3245 7.90844 11.1725 7.82422C10.9786 7.68816 10.9331 7.51238 11.0358 7.29687C11.0944 7.21996 11.166 7.16789 11.2507 7.14062Z" fill="currentColor"/>
	</symbol>
	<symbol id="calculator" viewBox="0 0 24 25" fill="none">
		<path opacity="0.968" fill-rule="evenodd" clip-rule="evenodd" d="M2.01562 0.5C8.67188 0.5 15.3281 0.5 21.9844 0.5C23.0469 0.78125 23.7188 1.45312 24 2.51562C24 9.17188 24 15.8281 24 22.4844C23.7188 23.5469 23.0469 24.2188 21.9844 24.5C15.3281 24.5 8.67188 24.5 2.01562 24.5C0.953123 24.2188 0.28125 23.5469 0 22.4844C0 15.8281 0 9.17188 0 2.51562C0.28125 1.45312 0.953123 0.78125 2.01562 0.5ZM2.20312 1.53125C5.29688 1.53125 8.39062 1.53125 11.4844 1.53125C11.4844 5.01562 11.4844 8.50002 11.4844 11.9844C8.00002 11.9844 4.51562 11.9844 1.03125 11.9844C1.02344 8.89058 1.03125 5.79683 1.05469 2.70312C1.22732 2.10085 1.61014 1.71022 2.20312 1.53125ZM12.5156 1.53125C15.6094 1.52344 18.7032 1.53125 21.7969 1.55469C22.3984 1.71875 22.7812 2.10156 22.9453 2.70312C22.9688 5.79683 22.9766 8.89058 22.9688 11.9844C19.4844 11.9844 16 11.9844 12.5156 11.9844C12.5156 8.50002 12.5156 5.01562 12.5156 1.53125ZM1.03125 13.0156C4.51562 13.0156 8.00002 13.0156 11.4844 13.0156C11.4844 16.5 11.4844 19.9844 11.4844 23.4688C8.39058 23.4766 5.29683 23.4688 2.20312 23.4453C1.60156 23.2812 1.21875 22.8984 1.05469 22.2969C1.03125 19.2032 1.02344 16.1094 1.03125 13.0156ZM12.5156 13.0156C16 13.0156 19.4844 13.0156 22.9688 13.0156C22.9766 16.1094 22.9688 19.2032 22.9453 22.2969C22.7812 22.8984 22.3984 23.2812 21.7969 23.4453C18.7032 23.4688 15.6094 23.4766 12.5156 23.4688C12.5156 19.9844 12.5156 16.5 12.5156 13.0156Z" fill="currentColor"/>
		<path opacity="0.956" fill-rule="evenodd" clip-rule="evenodd" d="M5.81272 4.48447C6.1234 4.42498 6.34995 4.53436 6.4924 4.81259C6.51584 5.37486 6.52367 5.93736 6.51584 6.50009C7.09418 6.49226 7.67229 6.50009 8.25022 6.52353C8.54417 6.74787 8.59883 7.02129 8.41428 7.34384C8.34026 7.41607 8.25429 7.47078 8.15647 7.5079C7.60981 7.53134 7.06292 7.53917 6.51584 7.53134C6.52367 8.07842 6.51584 8.62531 6.4924 9.17197C6.41872 9.4159 6.25465 9.52526 6.00022 9.50009C5.744 9.52461 5.57993 9.4152 5.50803 9.17197C5.48459 8.62531 5.47676 8.07842 5.48459 7.53134C4.93751 7.53917 4.39062 7.53134 3.84397 7.5079C3.50178 7.34675 3.40022 7.08893 3.53928 6.73447C3.59397 6.64854 3.66428 6.57823 3.75022 6.52353C4.32813 6.50009 4.90625 6.49226 5.48459 6.50009C5.47676 5.93736 5.48459 5.37486 5.50803 4.81259C5.58743 4.67864 5.68901 4.56926 5.81272 4.48447Z" fill="currentColor"/>
		<path opacity="0.956" fill-rule="evenodd" clip-rule="evenodd" d="M15.7502 6.50001C17.2503 6.49218 18.7503 6.50001 20.2502 6.52344C20.5442 6.74779 20.5988 7.02121 20.4143 7.34376C20.3403 7.41599 20.2543 7.47069 20.1565 7.50782C18.719 7.53908 17.2815 7.53908 15.844 7.50782C15.5018 7.34666 15.4002 7.08885 15.5393 6.73438C15.6033 6.6471 15.6736 6.56901 15.7502 6.50001Z" fill="currentColor"/>
		<path opacity="0.952" fill-rule="evenodd" clip-rule="evenodd" d="M4.3123 16.4848C4.47535 16.47 4.6316 16.4934 4.78105 16.5551C5.18015 16.962 5.58641 17.3604 5.9998 17.7504C6.41319 17.3604 6.81946 16.962 7.21855 16.5551C7.66447 16.3873 7.93011 16.5358 8.01543 17.0004C8.01472 17.1004 7.99129 17.1942 7.94511 17.2816C7.53819 17.6807 7.13975 18.087 6.7498 18.5004C7.13975 18.9138 7.53819 19.3201 7.94511 19.7191C8.11288 20.1651 7.96443 20.4307 7.4998 20.516C7.39977 20.5153 7.30602 20.4919 7.21855 20.4457C6.81946 20.0388 6.41319 19.6403 5.9998 19.2504C5.58641 19.6403 5.18015 20.0388 4.78105 20.4457C4.33511 20.6135 4.06948 20.465 3.98418 20.0004C3.98489 19.9004 4.00833 19.8066 4.05449 19.7191C4.46142 19.3201 4.85985 18.9138 5.2498 18.5004C4.82718 18.07 4.41311 17.6325 4.00761 17.1879C3.93101 16.8727 4.03257 16.6383 4.3123 16.4848Z" fill="currentColor"/>
		<path opacity="0.955" fill-rule="evenodd" clip-rule="evenodd" d="M15.7968 16.4844C17.2656 16.4766 18.7344 16.4844 20.2031 16.5078C20.5131 16.688 20.5991 16.9458 20.4609 17.2813C20.3885 17.3693 20.3026 17.4396 20.2031 17.4922C18.7343 17.5235 17.2655 17.5235 15.7968 17.4922C15.4867 17.3121 15.4008 17.0542 15.539 16.7188C15.6201 16.6296 15.706 16.5515 15.7968 16.4844Z" fill="currentColor"/>
		<path opacity="0.955" fill-rule="evenodd" clip-rule="evenodd" d="M15.7968 19.4844C17.2656 19.4766 18.7344 19.4844 20.2031 19.5078C20.5131 19.688 20.5991 19.9458 20.4609 20.2813C20.3885 20.3693 20.3026 20.4396 20.2031 20.4922C18.7343 20.5235 17.2655 20.5235 15.7968 20.4922C15.4867 20.3121 15.4008 20.0542 15.539 19.7188C15.6201 19.6296 15.706 19.5515 15.7968 19.4844Z" fill="currentColor"/>
	</symbol>
	<symbol id="chevron-left-circle" viewBox="0 0 80 80" fill="none">
		<circle cx="40" cy="40" r="39" fill="none" stroke="currentColor" stroke-width="2"/>
		<path d="M46.5 26L33 39.5L46.5 53" stroke="currentColor" stroke-width="2" stroke-linecap="round" stroke-linejoin="round"/>
	</symbol>
	<symbol id="chevron-right-circle" viewBox="0 0 80 80" fill="none">
		<circle cx="40" cy="40" r="39" transform="rotate(-180 40 40)" fill="none" stroke="currentColor" stroke-width="2"/>
		<path d="M33.5 54L47 40.5L33.5 27" stroke="currentColor" stroke-width="2" stroke-linecap="round" stroke-linejoin="round"/>
	</symbol>
	<symbol id="chevron-right" viewBox="0 0 10 18" fill="none">
		<path d="M1.3335 1.5L8.8335 9L1.3335 16.5" stroke="currentColor" stroke-width="2" stroke-linecap="round" stroke-linejoin="round"/>
	</symbol>
	<symbol id="calculator-alt" viewBox="0 0 40 48" fill="none">
		<path opacity="0.99" fill-rule="evenodd" clip-rule="evenodd" d="M4.48802 0C14.8294 0 25.1706 0 35.512 0C37.7751 0.598584 39.2235 2.03608 39.8572 4.3125C39.9653 10.8722 40.012 17.4347 39.9974 24C40.012 30.5653 39.9653 37.1278 39.8572 43.6875C39.2235 45.9639 37.7751 47.4014 35.512 48C25.1706 48 14.8294 48 4.48802 48C2.22487 47.4014 0.776459 45.9639 0.142795 43.6875C0.0346876 37.1278 -0.0120352 30.5653 0.00262644 24C-0.0120352 17.4347 0.0346876 10.8722 0.142795 4.3125C0.776459 2.03608 2.22487 0.598584 4.48802 0ZM9.53408 6C16.5114 5.98437 23.4887 6 30.4659 6.04688C32.1591 6.15322 33.265 7.0126 33.7832 8.625C33.9701 10.2188 33.9701 11.8125 33.7832 13.4062C33.3743 14.7541 32.4866 15.5822 31.12 15.8906C23.578 15.9833 16.0401 15.952 8.50618 15.7969C7.17533 15.3007 6.38104 14.3476 6.12332 12.9375C6.06099 11.6562 6.06099 10.375 6.12332 9.09375C6.5114 7.21957 7.64835 6.18832 9.53408 6ZM11.5899 20.0625C12.4562 19.9578 13.0636 20.3015 13.4121 21.0938C13.4587 21.5615 13.4743 22.0302 13.4588 22.5C14.3639 22.3551 15.1271 22.6051 15.7482 23.25C16.1342 24.0583 15.9629 24.7301 15.2343 25.2656C14.6574 25.4532 14.0656 25.5313 13.4588 25.5C13.4743 25.9698 13.4587 26.4385 13.4121 26.9062C12.9419 27.9 12.2099 28.1656 11.2161 27.7031C10.9013 27.4814 10.6988 27.1845 10.6087 26.8125C10.5621 26.3761 10.5465 25.9387 10.562 25.5C9.90731 25.5556 9.2843 25.4462 8.69307 25.1719C7.94551 24.3907 7.94551 23.6093 8.69307 22.8281C9.2843 22.5538 9.90731 22.4444 10.562 22.5C10.3281 21.418 10.6708 20.6055 11.5899 20.0625ZM25.0461 23.0625C26.9775 23.0468 28.9087 23.0625 30.8397 23.1094C31.8108 23.5121 32.1066 24.2153 31.7274 25.2188C31.4763 25.5651 31.1493 25.7994 30.7463 25.9219C28.9085 25.9844 27.0708 25.9844 25.233 25.9219C24.155 25.5244 23.8279 24.79 24.2518 23.7188C24.4799 23.4418 24.7447 23.2231 25.0461 23.0625ZM9.1603 32.0625C9.51287 32.0403 9.85554 32.0872 10.1882 32.2031C10.8238 32.747 11.4312 33.3251 12.0104 33.9375C12.6284 33.223 13.3293 32.6137 14.1129 32.1094C15.1668 31.9633 15.7898 32.4164 15.9818 33.4688C15.938 33.8038 15.829 34.1164 15.6548 34.4062C15.1238 34.9233 14.6099 35.4545 14.1129 36C14.6099 36.5455 15.1238 37.0767 15.6548 37.5938C16.195 38.598 15.9614 39.3637 14.9539 39.8906C14.39 40.0223 13.8916 39.8974 13.4588 39.5156C12.976 39.0312 12.4932 38.5469 12.0104 38.0625C11.4312 38.6749 10.8238 39.253 10.1882 39.7969C8.56608 40.0757 7.92757 39.4038 8.27257 37.7812C8.80044 37.1735 9.3456 36.5797 9.90787 36C9.27944 35.3855 8.70326 34.7292 8.17912 34.0312C7.96551 33.0848 8.29257 32.4285 9.1603 32.0625ZM25.0461 32.0625C26.9775 32.0468 28.9087 32.0625 30.8397 32.1094C31.8108 32.5121 32.1066 33.2152 31.7274 34.2188C31.4763 34.5651 31.1493 34.7994 30.7463 34.9219C28.9085 34.9844 27.0708 34.9844 25.233 34.9219C24.155 34.5244 23.8279 33.79 24.2518 32.7188C24.4799 32.4418 24.7447 32.2231 25.0461 32.0625ZM25.233 37.0312C27.0709 37.0156 28.9087 37.0312 30.7463 37.0781C31.6984 37.3796 32.0566 38.0203 31.8209 39C31.6408 39.462 31.3137 39.7588 30.8397 39.8906C28.9085 39.9532 26.9773 39.9532 25.0461 39.8906C24.0211 39.3681 23.7874 38.6024 24.3452 37.5938C24.6109 37.3441 24.9067 37.1566 25.233 37.0312Z" fill="currentColor"/>
	</symbol>
	<symbol id="square" viewBox="0 0 36 36" fill="none">
		<circle cx="18" cy="18" r="17.5" fill="currentColor" fill-opacity="0.05" stroke="currentColor"/>
		<path opacity="0.99" fill-rule="evenodd" clip-rule="evenodd" d="M11.25 8.00114C15.75 7.99419 20.25 8.00114 24.75 8.02197C26.5486 8.37614 27.625 9.45253 27.9792 11.2511C28.0069 15.7511 28.0069 20.2511 27.9792 24.7511C27.625 26.5498 26.5486 27.6261 24.75 27.9803C20.25 28.0081 15.75 28.0081 11.25 27.9803C9.45139 27.6261 8.375 26.5498 8.02083 24.7511C7.99306 20.2511 7.99306 15.7511 8.02083 11.2511C8.3825 9.45199 9.45888 8.36866 11.25 8.00114ZM11.7917 9.33447C15.9306 9.32753 20.0695 9.33447 24.2083 9.35531C25.479 9.47349 26.2776 10.1471 26.6042 11.3761C26.6517 13.5837 26.6726 15.7921 26.6667 18.0011C26.6726 20.2102 26.6517 22.4185 26.6042 24.6261C26.2776 25.8552 25.479 26.5288 24.2083 26.647C20.0695 26.6748 15.9305 26.6748 11.7917 26.647C10.2947 26.4932 9.48221 25.6668 9.35417 24.1678C9.31353 19.9032 9.32743 15.6393 9.39583 11.3761C9.72928 10.1467 10.5279 9.46613 11.7917 9.33447Z" fill="currentColor"/>
		<path opacity="0.978" fill-rule="evenodd" clip-rule="evenodd" d="M11.5835 11.3341C13.1669 11.3272 14.7502 11.3341 16.3335 11.355C16.7737 11.5781 16.8917 11.9184 16.6877 12.3758C16.6252 12.4661 16.5488 12.5425 16.4585 12.605C15.5306 12.6592 14.6 12.687 13.6668 12.6883C16.8821 15.9036 20.0974 19.1189 23.3127 22.3341C23.314 21.4009 23.3417 20.4704 23.396 19.5425C23.7228 19.1536 24.0909 19.1119 24.5002 19.4175C24.575 19.4854 24.6237 19.5688 24.646 19.6675C24.6738 21.2508 24.6738 22.8341 24.646 24.4175C24.6133 24.4919 24.5647 24.5544 24.5002 24.605C22.8926 24.6739 21.2814 24.6878 19.6668 24.6466C19.1655 24.3683 19.0752 23.9863 19.396 23.5008C19.4483 23.4712 19.4969 23.4365 19.5418 23.3966C20.4697 23.3424 21.4003 23.3146 22.3335 23.3133C19.1182 20.098 15.903 16.8828 12.6877 13.6675C12.6863 14.6007 12.6586 15.5312 12.6043 16.4591C12.2756 16.8483 11.9075 16.89 11.5002 16.5841C11.4253 16.5162 11.3767 16.4329 11.3543 16.3341C11.3266 14.7508 11.3266 13.1675 11.3543 11.5841C11.411 11.479 11.4874 11.3957 11.5835 11.3341Z" fill="currentColor"/>
	</symbol>
</svg>