<svg width="36" height="37" viewBox="0 0 36 37" fill="none" xmlns="http://www.w3.org/2000/svg">
<path opacity="0.964" fill-rule="evenodd" clip-rule="evenodd" d="M17.8367 0.5C18.8123 0.514681 19.6302 0.892766 20.2902 1.63427C21.7321 4.52587 23.1341 7.44256 24.4962 10.3844C24.5611 10.4519 24.6261 10.5194 24.6909 10.5869C27.7536 11.0729 30.8172 11.559 33.8819 12.0453C35.5194 12.6823 36.2075 13.9112 35.946 15.7317C35.8268 16.1685 35.6451 16.5736 35.4007 16.947C33.1939 19.1885 30.987 21.43 28.7801 23.6716C29.2515 26.9109 29.7319 30.1517 30.2211 33.3939C30.2204 34.8399 29.5713 35.8256 28.2739 36.3511C27.487 36.5938 26.7081 36.5398 25.9372 36.1891C23.3012 34.7236 20.653 33.2787 17.9925 31.8545C15.212 33.3546 12.4339 34.8535 9.65829 36.3511C7.38773 36.7915 6.06361 35.8328 5.68593 33.4749C6.22656 30.2088 6.73284 26.941 7.20477 23.6716C4.99791 21.43 2.79104 19.1885 0.584171 16.947C-0.194724 15.6506 -0.194724 14.3543 0.584171 13.058C1.09077 12.4503 1.72686 12.0857 2.49246 11.9643C5.43187 11.5352 8.36571 11.0761 11.294 10.5869C12.7328 7.74217 14.1218 4.86599 15.4611 1.95835C16.0514 1.10488 16.8433 0.618758 17.8367 0.5ZM17.7588 3.25466C17.9373 3.23389 18.1061 3.26089 18.2651 3.33568C19.6363 6.1614 20.9864 8.99708 22.3153 11.8427C22.7544 12.5956 23.3904 13.0682 24.2236 13.2606C27.0525 13.7003 29.8825 14.1323 32.7136 14.5569C32.9528 14.5688 33.1734 14.6363 33.3756 14.7594C33.4276 14.9215 33.4276 15.0835 33.3756 15.2455C31.1688 17.4871 28.9619 19.7286 26.755 21.9702C26.2548 22.701 26.0731 23.5112 26.2098 24.4008C26.6872 27.4208 27.1935 30.432 27.7286 33.4344C27.6377 33.637 27.495 33.7855 27.3002 33.88C24.6069 32.4185 21.9197 30.9466 19.2387 29.4645C18.4078 29.0864 17.5771 29.0864 16.7462 29.4645C14.1362 30.9165 11.5139 32.3478 8.87939 33.7585C8.68272 33.8311 8.51394 33.7906 8.37311 33.637C8.32116 33.3939 8.32116 33.1509 8.37311 32.9078C8.84886 30.0737 9.3162 27.238 9.77512 24.4008C9.90053 23.5133 9.71881 22.7031 9.2299 21.9702C7.02306 19.7286 4.81616 17.4871 2.6093 15.2455C2.51489 14.9754 2.57979 14.7729 2.80402 14.6379C5.78978 14.1788 8.77557 13.7197 11.7613 13.2606C12.5906 13.0737 13.2267 12.601 13.6696 11.8427C15.0126 8.96791 16.3756 6.10521 17.7588 3.25466Z" fill="#2C2922"/>
</svg>
