<svg width="20" height="25" viewBox="0 0 20 25" fill="none" xmlns="http://www.w3.org/2000/svg">
<path opacity="0.945" fill-rule="evenodd" clip-rule="evenodd" d="M9.25742 0C9.75247 0 10.2475 0 10.7426 0C12.9786 0.374161 14.5132 1.603 15.3465 3.68652C15.5738 4.37638 15.681 5.08437 15.6683 5.81055C16.7461 6.67148 16.9441 7.69688 16.2624 8.88672C16.0974 9.1146 15.8993 9.30991 15.6683 9.47266C15.7109 10.2927 15.3561 10.8705 14.604 11.2061C14.2097 11.2564 13.8137 11.2972 13.4158 11.3281C13.1325 11.6646 12.8107 11.9576 12.4505 12.207C12.4763 12.7424 12.5093 13.2795 12.5495 13.8184C12.5994 13.9042 12.6737 13.9612 12.7723 13.9893C14.4119 14.7409 16.0456 15.5059 17.6733 16.2842C18.9807 17.0964 19.748 18.2601 19.9752 19.7754C20.0083 21.4518 20.0083 23.1283 19.9752 24.8047C19.9241 24.8792 19.8664 24.9443 19.802 25C13.2673 25 6.73267 25 0.198021 25C0.133595 24.9443 0.0758378 24.8792 0.0247537 24.8047C-0.00825123 23.1283 -0.00825123 21.4518 0.0247537 19.7754C0.251892 18.2603 1.01922 17.0966 2.32673 16.2842C3.9544 15.5059 5.58807 14.7409 7.22772 13.9893C7.32633 13.9612 7.40059 13.9042 7.45049 13.8184C7.50133 13.281 7.5343 12.7438 7.5495 12.207C6.68727 11.6255 6.10148 10.8442 5.79208 9.86328C4.31792 9.80449 3.49282 9.05581 3.31683 7.61719C3.37124 6.85874 3.7095 6.25654 4.33168 5.81055C4.36827 3.18899 5.59767 1.35793 8.0198 0.317383C8.43257 0.187172 8.84514 0.0813779 9.25742 0ZM9.95049 0.78125C11.9297 0.86561 13.3901 1.7608 14.3317 3.4668C14.6534 4.1006 14.7936 4.76792 14.7525 5.46875C14.6412 5.42607 14.5257 5.40977 14.4059 5.41992C14.2155 3.64519 13.2914 2.40007 11.6337 1.68457C9.62584 1.03013 7.91792 1.47772 6.5099 3.02734C5.95609 3.72989 5.65084 4.52741 5.59406 5.41992C5.47426 5.40977 5.35876 5.42607 5.24752 5.46875C5.30856 3.53429 6.21614 2.12641 7.97029 1.24512C8.60965 0.97438 9.26975 0.819761 9.95049 0.78125ZM9.70297 2.19727C11.166 2.17403 12.2964 2.75997 13.0941 3.95508C13.2212 4.15585 13.3037 4.36744 13.3416 4.58984C12.687 4.39334 12.1342 4.04341 11.6832 3.54004C11.6039 3.52669 11.5296 3.50228 11.4604 3.4668C11.3911 3.50228 11.3169 3.52669 11.2376 3.54004C10.4866 4.37439 9.54599 4.86268 8.41584 5.00488C7.75604 5.127 7.09599 5.20024 6.43564 5.22461C6.84109 3.48986 7.93019 2.48074 9.70297 2.19727ZM11.4356 4.54102C12.0783 4.99702 12.7879 5.32256 13.5643 5.51758C13.6198 6.52549 13.6281 7.53462 13.5891 8.54492C13.5786 9.2269 13.3888 9.85356 13.0198 10.4248C12.0595 10.4266 11.1024 10.4592 10.1485 10.5225C9.8792 10.7882 9.89569 11.0323 10.198 11.2549C10.8746 11.2711 11.5511 11.2875 12.2277 11.3037C11.1546 12.0904 9.98297 12.2695 8.71287 11.8408C7.49193 11.3199 6.74109 10.4166 6.46039 9.13086C6.39326 8.12305 6.36851 7.11392 6.38614 6.10352C7.47341 6.02124 8.54604 5.85034 9.60396 5.59082C10.2969 5.36919 10.9074 5.01929 11.4356 4.54102ZM5.39604 6.25C5.44554 6.25 5.49505 6.25 5.54455 6.25C5.53426 7.17847 5.55074 8.1062 5.59406 9.0332C4.77886 8.90459 4.3003 8.44072 4.15841 7.6416C4.2649 6.91011 4.67742 6.44624 5.39604 6.25ZM14.4554 6.25C15.2601 6.38447 15.7221 6.84834 15.8416 7.6416C15.6997 8.44072 15.2211 8.90459 14.4059 9.0332C14.4492 8.1062 14.4657 7.17847 14.4554 6.25ZM14.6535 9.81445C14.7116 9.80376 14.7611 9.82002 14.802 9.86328C14.6838 10.2626 14.4198 10.4417 14.0099 10.4004C14.0959 10.2271 14.1619 10.048 14.2079 9.86328C14.367 9.87842 14.5155 9.86216 14.6535 9.81445ZM8.36633 12.5977C9.44717 12.9876 10.5281 12.9876 11.6089 12.5977C11.6458 13.0464 11.6871 13.4939 11.7327 13.9404C11.1529 14.3935 10.5671 14.8411 9.97524 15.2832C9.4142 14.86 8.85311 14.4369 8.29208 14.0137C8.32539 13.5447 8.35014 13.0727 8.36633 12.5977ZM12.2277 14.6484C12.6669 14.8548 13.096 15.0745 13.5148 15.3076C13.2356 15.9639 12.9386 16.6068 12.6238 17.2363C11.9802 16.7562 11.3366 16.276 10.6931 15.7959C11.2138 15.4201 11.7253 15.0376 12.2277 14.6484ZM7.62376 14.6973C7.71326 14.6968 7.79579 14.7212 7.87128 14.7705C8.3193 15.1311 8.78138 15.4729 9.25742 15.7959C8.61005 16.282 7.95821 16.7621 7.30198 17.2363C6.98955 16.6135 6.70079 15.9787 6.43564 15.332C6.83143 15.1205 7.22747 14.9089 7.62376 14.6973ZM14.3069 15.625C15.3244 16.0817 16.3311 16.5618 17.3267 17.0654C18.3322 17.7211 18.9345 18.6407 19.1337 19.8242C19.1584 21.289 19.1667 22.7538 19.1584 24.2188C16.6996 24.2188 14.2409 24.2188 11.7822 24.2188C11.6872 22.5578 11.5965 20.8977 11.5099 19.2383C11.6658 18.7604 11.8309 18.2885 12.0049 17.8223C12.1972 17.9956 12.4034 18.1502 12.6238 18.2861C12.8381 18.3423 13.0278 18.3017 13.1931 18.1641C13.5515 17.3107 13.9228 16.4644 14.3069 15.625ZM5.54455 15.6738C5.59406 15.6738 5.64356 15.6738 5.69307 15.6738C6.0196 16.5136 6.3744 17.3437 6.75742 18.1641C6.91866 18.307 7.10846 18.3478 7.32673 18.2861C7.56292 18.1329 7.78569 17.962 7.99505 17.7734C8.15995 18.2612 8.325 18.7495 8.4901 19.2383C8.40351 20.8977 8.31277 22.5578 8.21782 24.2188C5.75906 24.2188 3.30035 24.2188 0.841585 24.2188C0.833337 22.7538 0.841585 21.289 0.866337 19.8242C1.06547 18.6407 1.66778 17.7211 2.67327 17.0654C3.63158 16.5962 4.58871 16.1324 5.54455 15.6738ZM9.90098 16.3574C9.95306 16.3501 10.0026 16.3583 10.0495 16.3818C10.4695 16.6744 10.8655 16.9918 11.2376 17.334C11.0871 17.8201 10.9221 18.3002 10.7426 18.7744C10.2475 18.807 9.75247 18.807 9.25742 18.7744C9.07589 18.2699 8.8944 17.7653 8.71287 17.2607C9.11806 16.9663 9.5141 16.6652 9.90098 16.3574ZM9.35643 19.6289C9.79792 19.6134 10.2352 19.6297 10.6683 19.6777C10.7694 21.191 10.8601 22.7047 10.9406 24.2188C10.3135 24.2188 9.68648 24.2188 9.0594 24.2188C9.13391 22.6846 9.23292 21.1546 9.35643 19.6289Z" fill="#2C2922"/>
<path opacity="0.922" fill-rule="evenodd" clip-rule="evenodd" d="M13.7621 19.8243C14.8019 19.8162 15.8415 19.8243 16.8809 19.8488C17.1071 19.9728 17.1814 20.16 17.1037 20.4103C17.0574 20.5373 16.9667 20.6106 16.8314 20.63C15.8249 20.6626 14.8182 20.6626 13.8116 20.63C13.5213 20.4838 13.447 20.2641 13.5889 19.9708C13.6455 19.9154 13.7033 19.8665 13.7621 19.8243Z" fill="#2C2922"/>
</svg>
