<svg width="180" height="51" viewBox="0 0 180 51" fill="none" xmlns="http://www.w3.org/2000/svg">
<path d="M40.6226 16.9993L47.9818 0.5H51.7557L59.1385 16.9993H55.1287L49.0904 2.43278H50.5999L44.538 16.9993H40.6226ZM44.3022 13.4638L45.3164 10.5646H53.8078L54.8456 13.4638H44.3022Z" fill="#2C2922"/>
<path d="M68.5222 17.1879C67.4529 17.1879 66.5172 16.9522 65.7153 16.4808C64.9133 16.0094 64.2843 15.2944 63.8283 14.3359C63.388 13.3616 63.1679 12.136 63.1679 10.6589C63.1679 9.16608 63.3801 7.94041 63.8047 6.98188C64.2293 6.02335 64.8426 5.30838 65.6445 4.83697C66.4465 4.36556 67.4057 4.12985 68.5222 4.12985C69.7172 4.12985 70.7865 4.40484 71.73 4.95482C72.6892 5.48908 73.444 6.24334 73.9944 7.21758C74.5605 8.19183 74.8435 9.33893 74.8435 10.6589C74.8435 11.9945 74.5605 13.1495 73.9944 14.1237C73.444 15.098 72.6892 15.8522 71.73 16.3865C70.7865 16.9208 69.7172 17.1879 68.5222 17.1879ZM61.0214 21.572V4.31842H64.5359V6.91117L64.4652 10.6824L64.701 14.4302V21.572H61.0214ZM67.8853 14.1709C68.4986 14.1709 69.0411 14.0295 69.5128 13.7466C70.0003 13.4638 70.3855 13.0631 70.6686 12.5445C70.9674 12.0102 71.1168 11.3817 71.1168 10.6589C71.1168 9.92033 70.9674 9.29179 70.6686 8.77324C70.3855 8.25469 70.0003 7.85399 69.5128 7.57114C69.0411 7.2883 68.4986 7.14687 67.8853 7.14687C67.272 7.14687 66.7217 7.2883 66.2342 7.57114C65.7467 7.85399 65.3615 8.25469 65.0784 8.77324C64.7954 9.29179 64.6539 9.92033 64.6539 10.6589C64.6539 11.3817 64.7954 12.0102 65.0784 12.5445C65.3615 13.0631 65.7467 13.4638 66.2342 13.7466C66.7217 14.0295 67.272 14.1709 67.8853 14.1709Z" fill="#2C2922"/>
<path d="M79.6743 16.9993V6.4869L80.4998 7.33544H75.3814V4.31842H87.6232V7.33544H82.5048L83.3303 6.4869V16.9993H79.6743Z" fill="#2C2922"/>
<path d="M95.2582 17.1879C93.8116 17.1879 92.5379 16.905 91.4371 16.3394C90.3521 15.7737 89.5108 15.0037 88.9133 14.0295C88.3157 13.0395 88.017 11.916 88.017 10.6589C88.017 9.38607 88.3079 8.26254 88.8897 7.2883C89.4872 6.29834 90.2971 5.52837 91.3192 4.97839C92.3413 4.4127 93.4971 4.12985 94.7865 4.12985C96.0288 4.12985 97.1452 4.39699 98.1359 4.93125C99.1423 5.4498 99.9364 6.20405 100.518 7.19401C101.1 8.16826 101.391 9.33893 101.391 10.706C101.391 10.8474 101.383 11.0124 101.367 11.201C101.352 11.3738 101.336 11.5388 101.32 11.696H91.0126V9.55106H99.386L97.9708 10.1875C97.9708 9.52749 97.8371 8.95394 97.5698 8.46682C97.3025 7.9797 96.9329 7.60257 96.4612 7.33544C95.9894 7.05259 95.4391 6.91117 94.8101 6.91117C94.1811 6.91117 93.6229 7.05259 93.1354 7.33544C92.6637 7.60257 92.2941 7.98755 92.0268 8.49039C91.7595 8.97751 91.6258 9.55892 91.6258 10.2346V10.8003C91.6258 11.4917 91.7752 12.1045 92.074 12.6388C92.3885 13.1573 92.8209 13.558 93.3713 13.8409C93.9374 14.108 94.5978 14.2416 95.3526 14.2416C96.0288 14.2416 96.6184 14.1394 97.1216 13.9352C97.6406 13.7309 98.1123 13.4245 98.5369 13.0159L100.495 15.1373C99.9128 15.7972 99.1816 16.3079 98.301 16.6693C97.4204 17.015 96.4062 17.1879 95.2582 17.1879Z" fill="#2C2922"/>
<path d="M102.492 16.9758L102.681 13.9587C102.775 13.9745 102.87 13.9902 102.964 14.0059C103.058 14.0059 103.145 14.0059 103.224 14.0059C103.664 14.0059 104.01 13.8802 104.261 13.6288C104.513 13.3773 104.702 13.0395 104.827 12.6152C104.953 12.1752 105.04 11.6803 105.087 11.1303C105.15 10.5803 105.197 10.0068 105.228 9.40964L105.417 4.31842H116.267V16.9993H112.588V6.43976L113.413 7.33544H107.847L108.625 6.39262L108.46 9.57463C108.413 10.706 108.318 11.7431 108.177 12.6859C108.051 13.6288 107.839 14.4459 107.54 15.1373C107.241 15.813 106.84 16.3394 106.337 16.7165C105.834 17.0779 105.189 17.2586 104.403 17.2586C104.12 17.2586 103.821 17.235 103.507 17.1879C103.192 17.1408 102.854 17.07 102.492 16.9758Z" fill="#2C2922"/>
<path d="M126.67 8.37254C128.336 8.38825 129.602 8.76538 130.467 9.50392C131.348 10.2267 131.788 11.256 131.788 12.5917C131.788 13.9902 131.293 15.0823 130.302 15.8679C129.311 16.6379 127.935 17.0229 126.174 17.0229L119.806 16.9993V4.31842H123.462V8.37254H126.67ZM125.844 14.4066C126.552 14.4223 127.094 14.273 127.472 13.9587C127.849 13.6445 128.038 13.1731 128.038 12.5445C128.038 11.916 127.849 11.4681 127.472 11.201C127.094 10.9181 126.552 10.7689 125.844 10.7532L123.462 10.7296V14.4066H125.844Z" fill="#2C2922"/>
<path d="M53.1709 45.7388L48.0289 37.7955L51.1189 35.9334L57.511 45.7388H53.1709ZM42.4388 45.7388V29.2394H46.2363V45.7388H42.4388ZM45.1277 39.0919V35.9099H50.883V39.0919H45.1277ZM51.4727 37.9134L47.9582 37.4891L53.3125 29.2394H57.3459L51.4727 37.9134Z" fill="#2C2922"/>
<path d="M59.3174 45.7388V33.0579H62.9735V40.6004L69.1533 33.0579H72.5263V45.7388H68.8703V38.1962L62.714 45.7388H59.3174Z" fill="#2C2922"/>
<path d="M82.1017 45.9273C80.7337 45.9273 79.515 45.6523 78.4457 45.1024C77.3764 44.5367 76.5352 43.7589 75.9219 42.7689C75.3244 41.7789 75.0256 40.6554 75.0256 39.3983C75.0256 38.1255 75.3244 37.002 75.9219 36.0277C76.5352 35.0378 77.3764 34.2678 78.4457 33.7178C79.515 33.1521 80.7337 32.8693 82.1017 32.8693C83.4384 32.8693 84.602 33.1521 85.5927 33.7178C86.5833 34.2678 87.3145 35.0613 87.7863 36.0984L84.9322 37.6305C84.602 37.0334 84.1853 36.5934 83.6821 36.3106C83.1946 36.0277 82.66 35.8863 82.0782 35.8863C81.4492 35.8863 80.8831 36.0277 80.3799 36.3106C79.8767 36.5934 79.4757 36.9941 79.1769 37.5127C78.8939 38.0312 78.7524 38.6598 78.7524 39.3983C78.7524 40.1369 78.8939 40.7654 79.1769 41.2839C79.4757 41.8025 79.8767 42.2032 80.3799 42.486C80.8831 42.7689 81.4492 42.9103 82.0782 42.9103C82.66 42.9103 83.1946 42.7767 83.6821 42.5096C84.1853 42.2268 84.602 41.7789 84.9322 41.1661L87.7863 42.7217C87.3145 43.7431 86.5833 44.5367 85.5927 45.1024C84.602 45.6523 83.4384 45.9273 82.1017 45.9273Z" fill="#2C2922"/>
<path d="M91.5598 50.5C90.8994 50.5 90.2468 50.3979 89.6021 50.1936C88.9574 49.9893 88.4306 49.7065 88.0218 49.3451L89.3662 46.7287C89.6493 46.9801 89.9716 47.1766 90.3333 47.318C90.7107 47.4594 91.0802 47.5301 91.4419 47.5301C91.9608 47.5301 92.3697 47.4044 92.6684 47.153C92.9829 46.9173 93.266 46.5166 93.5176 45.9509L94.178 44.3952L94.4611 43.9946L99.0134 33.0579H102.551L96.8198 46.5166C96.4109 47.538 95.9392 48.3394 95.4046 48.9208C94.8856 49.5022 94.3038 49.9107 93.6591 50.1464C93.0301 50.3822 92.3304 50.5 91.5598 50.5ZM93.7299 46.2337L88.0689 33.0579H91.8665L96.2537 43.6646L93.7299 46.2337Z" fill="#2C2922"/>
<path d="M111.804 45.9273C110.734 45.9273 109.799 45.6916 108.997 45.2202C108.195 44.7488 107.566 44.0338 107.11 43.0753C106.67 42.1011 106.449 40.8754 106.449 39.3983C106.449 37.9055 106.662 36.6798 107.086 35.7213C107.511 34.7628 108.124 34.0478 108.926 33.5764C109.728 33.105 110.687 32.8693 111.804 32.8693C112.999 32.8693 114.068 33.1443 115.012 33.6943C115.971 34.2285 116.726 34.9828 117.276 35.957C117.842 36.9313 118.125 38.0784 118.125 39.3983C118.125 40.734 117.842 41.8889 117.276 42.8632C116.726 43.8374 115.971 44.5917 115.012 45.1259C114.068 45.6602 112.999 45.9273 111.804 45.9273ZM104.303 50.3114V33.0579H107.818V35.6506L107.747 39.4219L107.983 43.1696V50.3114H104.303ZM111.167 42.9103C111.78 42.9103 112.323 42.7689 112.794 42.486C113.282 42.2032 113.667 41.8025 113.95 41.2839C114.249 40.7497 114.398 40.1211 114.398 39.3983C114.398 38.6598 114.249 38.0312 113.95 37.5127C113.667 36.9941 113.282 36.5934 112.794 36.3106C112.323 36.0277 111.78 35.8863 111.167 35.8863C110.554 35.8863 110.003 36.0277 109.516 36.3106C109.028 36.5934 108.643 36.9941 108.36 37.5127C108.077 38.0312 107.935 38.6598 107.935 39.3983C107.935 40.1211 108.077 40.7497 108.36 41.2839C108.643 41.8025 109.028 42.2032 109.516 42.486C110.003 42.7689 110.554 42.9103 111.167 42.9103Z" fill="#2C2922"/>
<path d="M129.691 45.7388L125.445 39.7283L128.441 37.9605L134.031 45.7388H129.691ZM120.704 45.7388V33.0579H124.384V45.7388H120.704ZM123.299 40.9304V37.9841H127.733V40.9304H123.299ZM128.794 39.8226L125.351 39.4454L129.809 33.0579H133.724L128.794 39.8226Z" fill="#2C2922"/>
<path d="M135.838 45.7388V33.0579H139.494V40.6004L145.673 33.0579H149.046V45.7388H145.39V38.1962L139.234 45.7388H135.838Z" fill="#2C2922"/>
<path d="M152.584 45.7388V33.0579H156.24V38.0077H161.759V33.0579H165.439V45.7388H161.759V41.0011H156.24V45.7388H152.584Z" fill="#2C2922"/>
<path d="M176.556 45.7388V43.2639L176.32 42.7217V38.2905C176.32 37.5048 176.077 36.892 175.589 36.452C175.117 36.012 174.386 35.792 173.395 35.792C172.719 35.792 172.051 35.902 171.391 36.122C170.746 36.3263 170.195 36.6091 169.739 36.9706L168.419 34.4014C169.11 33.9142 169.944 33.5371 170.919 33.27C171.894 33.0029 172.884 32.8693 173.891 32.8693C175.825 32.8693 177.327 33.325 178.396 34.2364C179.465 35.1478 180 36.5699 180 38.5026V45.7388H176.556ZM172.688 45.9273C171.697 45.9273 170.848 45.7623 170.14 45.4324C169.433 45.0867 168.89 44.6231 168.513 44.0417C168.135 43.4603 167.947 42.8082 167.947 42.0853C167.947 41.3311 168.128 40.6711 168.489 40.1054C168.867 39.5397 169.456 39.0998 170.258 38.7855C171.06 38.4555 172.106 38.2905 173.395 38.2905H176.768V40.4354H173.796C172.932 40.4354 172.334 40.5768 172.004 40.8597C171.689 41.1425 171.532 41.4961 171.532 41.9203C171.532 42.3918 171.713 42.7689 172.075 43.0517C172.452 43.3189 172.963 43.4524 173.608 43.4524C174.221 43.4524 174.771 43.311 175.259 43.0282C175.746 42.7296 176.1 42.2975 176.32 41.7318L176.886 43.4289C176.619 44.246 176.132 44.8667 175.424 45.2909C174.716 45.7152 173.804 45.9273 172.688 45.9273Z" fill="#2C2922"/>
<mask id="path-2-inside-1_401_4" fill="white">
<path d="M0 0.5H30.5186V16.9848H0V0.5Z"/>
</mask>
<path d="M0 0.5V-79.5H-80V0.5H0ZM30.5186 0.5H110.519V-79.5H30.5186V0.5ZM30.5186 16.9848V96.9848H110.519V16.9848H30.5186ZM0 16.9848H-80V96.9848H0V16.9848ZM0 80.5H30.5186V-79.5H0V80.5ZM-49.4814 0.5V16.9848H110.519V0.5H-49.4814ZM30.5186 -63.0152H0V96.9848H30.5186V-63.0152ZM80 16.9848V0.5H-80V16.9848H80Z" fill="#EEA900" mask="url(#path-2-inside-1_401_4)"/>
<mask id="path-4-inside-2_401_4" fill="white">
<path d="M0 28.6611H30.1062V45.9015H0V28.6611Z"/>
</mask>
<path d="M0 28.6611V-51.3389H-80V28.6611H0ZM30.1062 28.6611H110.106V-51.3389H30.1062V28.6611ZM30.1062 45.9015V125.902H110.106V45.9015H30.1062ZM0 45.9015H-80V125.902H0V45.9015ZM0 108.661H30.1062V-51.3389H0V108.661ZM-49.8938 28.6611V45.9015H110.106V28.6611H-49.8938ZM30.1062 -34.0985H0V125.902H30.1062V-34.0985ZM80 45.9015V28.6611H-80V45.9015H80Z" fill="#2C2922" mask="url(#path-4-inside-2_401_4)"/>
</svg>
